<svg width="33" height="26" viewBox="0 0 33 26" fill="none" xmlns="http://www.w3.org/2000/svg">
  <path
    d="M0.35791 21.1432H10.6356V24.0796H0.35791V21.1432ZM0.35791 10.8655H13.572V13.802H0.35791V10.8655ZM0.35791 0.587891H29.7226V3.52436H0.35791V0.587891Z"
    fill="black" fill-opacity="0.35" />
  <path
    d="M24.5847 25.4257C20.1923 25.4257 16.6318 21.8651 16.6318 17.4727C16.6318 13.0803 20.1923 9.51978 24.5847 9.51978C28.9771 9.51978 32.5377 13.0803 32.5377 17.4727C32.5377 21.8651 28.9771 25.4257 24.5847 25.4257ZM23.7894 19.8586V21.4492H25.38V19.8586H23.7894ZM25.38 18.5503C26.0192 18.3577 26.5679 17.9419 26.9262 17.3787C27.2845 16.8154 27.4286 16.1422 27.3322 15.4817C27.2359 14.8211 26.9055 14.2171 26.4012 13.7797C25.8969 13.3423 25.2523 13.1006 24.5847 13.0986C23.9412 13.0985 23.3175 13.3214 22.8198 13.7293C22.322 14.1371 21.9809 14.7048 21.8545 15.3358L23.4148 15.6483C23.4591 15.4268 23.5654 15.2224 23.7213 15.0589C23.8772 14.8954 24.0764 14.7795 24.2956 14.7247C24.5148 14.67 24.745 14.6786 24.9595 14.7496C25.174 14.8206 25.3639 14.951 25.5071 15.1257C25.6504 15.3004 25.7411 15.5122 25.7687 15.7365C25.7962 15.9607 25.7596 16.1882 25.663 16.3924C25.5663 16.5966 25.4137 16.7692 25.2228 16.89C25.0319 17.0109 24.8106 17.0751 24.5847 17.0751C24.3738 17.0751 24.1715 17.1589 24.0224 17.308C23.8732 17.4572 23.7894 17.6594 23.7894 17.8704V19.0633H25.38V18.5503Z"
    fill="black" fill-opacity="0.35" />
</svg>