<svg width="26" height="26" viewBox="0 0 26 26" fill="none" xmlns="http://www.w3.org/2000/svg">
  <g clip-path="url(#clip0_13_134)">
    <path
      d="M5.36359 21.4528H20.3805V23.5981H5.36359V21.4528ZM12.872 19.3075C10.5962 19.3075 8.41356 18.4035 6.8043 16.7942C5.19503 15.1849 4.29095 13.0023 4.29095 10.7265C4.29095 8.45062 5.19503 6.26799 6.8043 4.65873C8.41356 3.04946 10.5962 2.14539 12.872 2.14539C15.1479 2.14539 17.3305 3.04946 18.9398 4.65873C20.549 6.26799 21.4531 8.45062 21.4531 10.7265C21.4531 13.0023 20.549 15.1849 18.9398 16.7942C17.3305 18.4035 15.1479 19.3075 12.872 19.3075Z"
      fill="black" fill-opacity="0.35" />
  </g>
  <defs>
    <clipPath id="clip0_13_134">
      <rect width="25.7432" height="25.7432" fill="white" />
    </clipPath>
  </defs>
</svg>